<mxfile host="Electron" modified="2024-08-04T20:12:10.968Z" agent="Mozilla/5.0 (Windows NT 10.0; Win64; x64) AppleWebKit/537.36 (KHTML, like Gecko) draw.io/23.1.5 Chrome/120.0.6099.109 Electron/28.1.0 Safari/537.36" etag="2AOp5JWkEEyZGFhXa5wx" version="23.1.5" type="device">
  <diagram name="Page-1" id="X7lXuVGgIULx2fpEni_M">
    <mxGraphModel dx="1836" dy="985" grid="1" gridSize="10" guides="1" tooltips="1" connect="1" arrows="1" fold="1" page="1" pageScale="1" pageWidth="827" pageHeight="1169" math="0" shadow="0">
      <root>
        <mxCell id="0" />
        <mxCell id="1" parent="0" />
        <mxCell id="iVkYS-rbBSNuBG6V8WJE-12" style="edgeStyle=orthogonalEdgeStyle;rounded=0;orthogonalLoop=1;jettySize=auto;html=1;entryX=0.5;entryY=0;entryDx=0;entryDy=0;" parent="1" source="iVkYS-rbBSNuBG6V8WJE-1" target="iVkYS-rbBSNuBG6V8WJE-2" edge="1">
          <mxGeometry relative="1" as="geometry" />
        </mxCell>
        <mxCell id="iVkYS-rbBSNuBG6V8WJE-13" style="edgeStyle=orthogonalEdgeStyle;rounded=0;orthogonalLoop=1;jettySize=auto;html=1;entryX=0.5;entryY=0;entryDx=0;entryDy=0;" parent="1" source="iVkYS-rbBSNuBG6V8WJE-1" target="iVkYS-rbBSNuBG6V8WJE-3" edge="1">
          <mxGeometry relative="1" as="geometry" />
        </mxCell>
        <mxCell id="iVkYS-rbBSNuBG6V8WJE-1" value="A (1)" style="rounded=0;whiteSpace=wrap;html=1;" parent="1" vertex="1">
          <mxGeometry x="120" y="120" width="50" height="30" as="geometry" />
        </mxCell>
        <mxCell id="iVkYS-rbBSNuBG6V8WJE-16" style="edgeStyle=orthogonalEdgeStyle;rounded=0;orthogonalLoop=1;jettySize=auto;html=1;entryX=0.5;entryY=0;entryDx=0;entryDy=0;" parent="1" source="iVkYS-rbBSNuBG6V8WJE-2" target="iVkYS-rbBSNuBG6V8WJE-9" edge="1">
          <mxGeometry relative="1" as="geometry" />
        </mxCell>
        <mxCell id="iVkYS-rbBSNuBG6V8WJE-18" style="edgeStyle=orthogonalEdgeStyle;rounded=0;orthogonalLoop=1;jettySize=auto;html=1;entryX=0.5;entryY=0;entryDx=0;entryDy=0;" parent="1" source="iVkYS-rbBSNuBG6V8WJE-2" target="iVkYS-rbBSNuBG6V8WJE-10" edge="1">
          <mxGeometry relative="1" as="geometry" />
        </mxCell>
        <mxCell id="iVkYS-rbBSNuBG6V8WJE-2" value="B (1)" style="rounded=0;whiteSpace=wrap;html=1;" parent="1" vertex="1">
          <mxGeometry x="90" y="190" width="50" height="30" as="geometry" />
        </mxCell>
        <mxCell id="iVkYS-rbBSNuBG6V8WJE-3" value="C (2)" style="rounded=0;whiteSpace=wrap;html=1;" parent="1" vertex="1">
          <mxGeometry x="150" y="190" width="50" height="30" as="geometry" />
        </mxCell>
        <mxCell id="iVkYS-rbBSNuBG6V8WJE-4" value="G (1)" style="rounded=0;whiteSpace=wrap;html=1;" parent="1" vertex="1">
          <mxGeometry x="240" y="190" width="50" height="30" as="geometry" />
        </mxCell>
        <mxCell id="iVkYS-rbBSNuBG6V8WJE-5" value="H (2)" style="rounded=0;whiteSpace=wrap;html=1;" parent="1" vertex="1">
          <mxGeometry x="300" y="190" width="50" height="30" as="geometry" />
        </mxCell>
        <mxCell id="iVkYS-rbBSNuBG6V8WJE-14" style="edgeStyle=orthogonalEdgeStyle;rounded=0;orthogonalLoop=1;jettySize=auto;html=1;entryX=0.5;entryY=0;entryDx=0;entryDy=0;" parent="1" source="iVkYS-rbBSNuBG6V8WJE-7" target="iVkYS-rbBSNuBG6V8WJE-4" edge="1">
          <mxGeometry relative="1" as="geometry" />
        </mxCell>
        <mxCell id="iVkYS-rbBSNuBG6V8WJE-15" style="edgeStyle=orthogonalEdgeStyle;rounded=0;orthogonalLoop=1;jettySize=auto;html=1;entryX=0.5;entryY=0;entryDx=0;entryDy=0;" parent="1" source="iVkYS-rbBSNuBG6V8WJE-7" target="iVkYS-rbBSNuBG6V8WJE-5" edge="1">
          <mxGeometry relative="1" as="geometry" />
        </mxCell>
        <mxCell id="iVkYS-rbBSNuBG6V8WJE-7" value="F (2)" style="rounded=0;whiteSpace=wrap;html=1;" parent="1" vertex="1">
          <mxGeometry x="270" y="120" width="50" height="30" as="geometry" />
        </mxCell>
        <mxCell id="iVkYS-rbBSNuBG6V8WJE-9" value="D (1)" style="rounded=0;whiteSpace=wrap;html=1;" parent="1" vertex="1">
          <mxGeometry x="60" y="260" width="50" height="30" as="geometry" />
        </mxCell>
        <mxCell id="iVkYS-rbBSNuBG6V8WJE-10" value="E (2)" style="rounded=0;whiteSpace=wrap;html=1;" parent="1" vertex="1">
          <mxGeometry x="120" y="260" width="50" height="30" as="geometry" />
        </mxCell>
        <mxCell id="iVkYS-rbBSNuBG6V8WJE-11" value="I (3)" style="rounded=0;whiteSpace=wrap;html=1;" parent="1" vertex="1">
          <mxGeometry x="420" y="120" width="50" height="30" as="geometry" />
        </mxCell>
        <mxCell id="iVkYS-rbBSNuBG6V8WJE-22" style="edgeStyle=orthogonalEdgeStyle;rounded=0;orthogonalLoop=1;jettySize=auto;html=1;entryX=0.5;entryY=0;entryDx=0;entryDy=0;" parent="1" source="iVkYS-rbBSNuBG6V8WJE-21" target="iVkYS-rbBSNuBG6V8WJE-1" edge="1">
          <mxGeometry relative="1" as="geometry" />
        </mxCell>
        <mxCell id="iVkYS-rbBSNuBG6V8WJE-23" style="edgeStyle=orthogonalEdgeStyle;rounded=0;orthogonalLoop=1;jettySize=auto;html=1;entryX=0.5;entryY=0;entryDx=0;entryDy=0;" parent="1" source="iVkYS-rbBSNuBG6V8WJE-21" target="iVkYS-rbBSNuBG6V8WJE-7" edge="1">
          <mxGeometry relative="1" as="geometry" />
        </mxCell>
        <mxCell id="iVkYS-rbBSNuBG6V8WJE-24" style="edgeStyle=orthogonalEdgeStyle;rounded=0;orthogonalLoop=1;jettySize=auto;html=1;entryX=0.5;entryY=0;entryDx=0;entryDy=0;" parent="1" source="iVkYS-rbBSNuBG6V8WJE-21" target="iVkYS-rbBSNuBG6V8WJE-11" edge="1">
          <mxGeometry relative="1" as="geometry" />
        </mxCell>
        <mxCell id="iVkYS-rbBSNuBG6V8WJE-26" style="edgeStyle=orthogonalEdgeStyle;rounded=0;orthogonalLoop=1;jettySize=auto;html=1;" parent="1" source="iVkYS-rbBSNuBG6V8WJE-21" edge="1">
          <mxGeometry relative="1" as="geometry">
            <mxPoint x="595" y="120" as="targetPoint" />
          </mxGeometry>
        </mxCell>
        <mxCell id="iVkYS-rbBSNuBG6V8WJE-21" value="/" style="rounded=0;whiteSpace=wrap;html=1;" parent="1" vertex="1">
          <mxGeometry x="270" y="70" width="50" height="30" as="geometry" />
        </mxCell>
        <mxCell id="iVkYS-rbBSNuBG6V8WJE-27" value="K (1)" style="rounded=0;whiteSpace=wrap;html=1;" parent="1" vertex="1">
          <mxGeometry x="510" y="190" width="50" height="30" as="geometry" />
        </mxCell>
        <mxCell id="iVkYS-rbBSNuBG6V8WJE-28" value="L (2)" style="rounded=0;whiteSpace=wrap;html=1;" parent="1" vertex="1">
          <mxGeometry x="570" y="190" width="50" height="30" as="geometry" />
        </mxCell>
        <mxCell id="iVkYS-rbBSNuBG6V8WJE-29" style="edgeStyle=orthogonalEdgeStyle;rounded=0;orthogonalLoop=1;jettySize=auto;html=1;entryX=0.5;entryY=0;entryDx=0;entryDy=0;" parent="1" source="iVkYS-rbBSNuBG6V8WJE-31" target="iVkYS-rbBSNuBG6V8WJE-27" edge="1">
          <mxGeometry relative="1" as="geometry">
            <Array as="points">
              <mxPoint x="595" y="160" />
              <mxPoint x="535" y="160" />
            </Array>
          </mxGeometry>
        </mxCell>
        <mxCell id="iVkYS-rbBSNuBG6V8WJE-30" style="edgeStyle=orthogonalEdgeStyle;rounded=0;orthogonalLoop=1;jettySize=auto;html=1;entryX=0.5;entryY=0;entryDx=0;entryDy=0;" parent="1" source="iVkYS-rbBSNuBG6V8WJE-31" target="iVkYS-rbBSNuBG6V8WJE-28" edge="1">
          <mxGeometry relative="1" as="geometry" />
        </mxCell>
        <mxCell id="iVkYS-rbBSNuBG6V8WJE-33" style="edgeStyle=orthogonalEdgeStyle;rounded=0;orthogonalLoop=1;jettySize=auto;html=1;entryX=0.5;entryY=0;entryDx=0;entryDy=0;" parent="1" source="iVkYS-rbBSNuBG6V8WJE-31" target="iVkYS-rbBSNuBG6V8WJE-32" edge="1">
          <mxGeometry relative="1" as="geometry">
            <Array as="points">
              <mxPoint x="595" y="160" />
              <mxPoint x="655" y="160" />
            </Array>
          </mxGeometry>
        </mxCell>
        <mxCell id="iVkYS-rbBSNuBG6V8WJE-31" value="&amp;nbsp;J(4)" style="rounded=0;whiteSpace=wrap;html=1;" parent="1" vertex="1">
          <mxGeometry x="570" y="120" width="50" height="30" as="geometry" />
        </mxCell>
        <mxCell id="iVkYS-rbBSNuBG6V8WJE-32" value="M (3)" style="rounded=0;whiteSpace=wrap;html=1;" parent="1" vertex="1">
          <mxGeometry x="630" y="190" width="50" height="30" as="geometry" />
        </mxCell>
      </root>
    </mxGraphModel>
  </diagram>
</mxfile>
